<svg xmlns="http://www.w3.org/2000/svg" width="96.598" height="96.598" viewBox="0 0 96.598 96.598">
  <g id="Group_1386" data-name="Group 1386" transform="translate(-458.226 -3890.84)">
    <path id="Path_242" data-name="Path 242" d="M365.553,77.13H353.4a9.605,9.605,0,0,1-9.595-9.595V55.387a9.605,9.605,0,0,1,9.595-9.595h12.149a9.605,9.605,0,0,1,9.595,9.595V67.536a9.605,9.605,0,0,1-9.595,9.595M353.4,48.139a7.256,7.256,0,0,0-7.248,7.248V67.536a7.256,7.256,0,0,0,7.248,7.248h12.149a7.257,7.257,0,0,0,7.248-7.248V55.387a7.257,7.257,0,0,0-7.248-7.248Z" transform="translate(146.545 3877.344)" fill="#00314d"/>
    <path id="Path_243" data-name="Path 243" d="M362.67,72.58a7.927,7.927,0,1,1,7.928-7.928,7.936,7.936,0,0,1-7.928,7.928m0-13.452a5.525,5.525,0,1,0,5.524,5.524,5.531,5.531,0,0,0-5.524-5.524" transform="translate(143.354 3874.152)" fill="#00314d"/>
    <path id="Path_244" data-name="Path 244" d="M379.563,54.657a2.064,2.064,0,1,1-2.064-2.064,2.064,2.064,0,0,1,2.064,2.064" transform="translate(137.313 3875.359)" fill="#00314d"/>
    <circle id="Ellipse_11" data-name="Ellipse 11" cx="47.799" cy="47.799" r="47.799" transform="translate(458.726 3891.34)" fill="none" stroke="#c7c9cb" stroke-miterlimit="10" stroke-width="1"/>
  </g>
</svg>
