<svg xmlns="http://www.w3.org/2000/svg" width="96.598" height="96.598" viewBox="0 0 96.598 96.598">
  <g id="Group_1385" data-name="Group 1385" transform="translate(-352.585 -3890.563)">
    <path id="Path_237" data-name="Path 237" d="M223.525,73.484l-8.617-12.518-.974-1.416L207.77,50.6l-.511-.742h-7.574l1.848,2.684,8.2,11.908.974,1.414,6.585,9.568.511.741h7.574Zm-4.827.971-6.841-9.94-.974-1.415-7.938-11.534h3.415l6.42,9.328.974,1.416,8.36,12.146Z" transform="translate(188.609 3876.158)" fill="#00314d"/>
    <path id="Path_238" data-name="Path 238" d="M210.871,68.56l.974,1.415-1.155,1.344-8.862,10.309h-2.185l10.072-11.723Z" transform="translate(188.622 3870.699)" fill="#00314d"/>
    <path id="Path_239" data-name="Path 239" d="M229.857,49.853l-9.552,11.113-1.155,1.343-.974-1.415,1.155-1.344,6.471-7.532,1.87-2.165Z" transform="translate(183.213 3876.158)" fill="#00314d"/>
    <circle id="Ellipse_12" data-name="Ellipse 12" cx="47.799" cy="47.799" r="47.799" transform="translate(353.085 3891.063)" fill="none" stroke="#c7c9cb" stroke-miterlimit="10" stroke-width="1"/>
  </g>
</svg>
