<svg xmlns="http://www.w3.org/2000/svg" width="96.598" height="96.598" viewBox="0 0 96.598 96.598">
  <g id="Group_1388" data-name="Group 1388" transform="translate(-670.657 -3890.563)">
    <circle id="Ellipse_9" data-name="Ellipse 9" cx="47.799" cy="47.799" r="47.799" transform="translate(671.157 3891.063)" fill="none" stroke="#c7c9cb" stroke-miterlimit="10" stroke-width="1"/>
    <rect id="Rectangle_124" data-name="Rectangle 124" width="5.758" height="18.629" transform="translate(705.657 3934.373)" fill="#00314d"/>
    <path id="Path_240" data-name="Path 240" d="M650.576,55.454a3.361,3.361,0,1,1,3.361-3.361,3.362,3.362,0,0,1-3.361,3.361" transform="translate(57.99 3876.486)" fill="#00314d"/>
    <path id="Path_241" data-name="Path 241" d="M679.059,80.131H673.28V70.319s.346-4.14-2.933-4.1c0,0-3.213-.388-3.427,3.622V80.131H661.1V61.585h5.519v2.567a6.407,6.407,0,0,1,6.426-3,5.78,5.78,0,0,1,5.737,5.2,13.727,13.727,0,0,1,.28,3.342Z" transform="translate(53.938 3872.869)" fill="#00314d"/>
  </g>
</svg>
